<svg xmlns="http://www.w3.org/2000/svg" viewBox="0 0 480 270" width="480" height="270" preserveAspectRatio="xMidYMid meet" style="width: 100%; height: 100%; transform: translate3d(0px, 0px, 0px);"><defs><clipPath id="__lottie_element_249"><rect width="480" height="270" x="0" y="0"></rect></clipPath></defs><g clip-path="url(#__lottie_element_249)"><g transform="matrix(1,0,0,1,270.1134338378906,135)" opacity="1" style="display: none;"><g opacity="1" transform="matrix(1,0,0,1,0,0)"><path stroke-linecap="butt" stroke-linejoin="miter" fill-opacity="0" stroke-miterlimit="4" stroke="rgb(0,127,0)" stroke-opacity="1" stroke-width="4" d=" M-100.12200164794922,-34.707000732421875 C-102.33899688720703,-35.44599914550781 -102.81100463867188,-35.60350036621094 -102.81100463867188,-35.60350036621094 C-104.29505920410156,-36.0982780456543 -106.7322769165039,-37.284175872802734 -108.25,-38.25 C-108.25,-38.25 -108.25,-38.25 -108.25,-38.25 C-109.7677230834961,-39.215824127197266 -111.1100082397461,-40.06407928466797 -111.24549865722656,-40.14299774169922 C-111.24549865722656,-40.14299774169922 -111.18499755859375,-40.108001708984375 -111.49099731445312,-40.2859992980957"></path></g><g opacity="1" transform="matrix(-0.4226182699203491,-0.9063078165054321,0.9063078165054321,-0.4226182699203491,126.25,37.875)"><path stroke-linecap="butt" stroke-linejoin="miter" fill-opacity="0" stroke-miterlimit="4" stroke="rgb(0,127,0)" stroke-opacity="1" stroke-width="4" d="M0 0"></path></g><g opacity="1" transform="matrix(1.0300999879837036,0,0,1.007539987564087,0,0)"><path stroke-linecap="butt" stroke-linejoin="miter" fill-opacity="0" stroke-miterlimit="4" stroke="rgb(0,127,0)" stroke-opacity="1" stroke-width="4" d="M0 0"></path></g><g opacity="1" transform="matrix(-0.258819043636322,-0.9659258127212524,0.9659258127212524,-0.258819043636322,-126.375,37.75)"><path stroke-linecap="butt" stroke-linejoin="miter" fill-opacity="0" stroke-miterlimit="4" stroke="rgb(0,127,0)" stroke-opacity="1" stroke-width="4" d="M0 0"></path></g><g opacity="1" transform="matrix(1,0,0,1,0,0)"><path stroke-linecap="butt" stroke-linejoin="miter" fill-opacity="0" stroke-miterlimit="4" stroke="rgb(0,127,0)" stroke-opacity="1" stroke-width="4" d="M0 0"></path></g></g><g transform="matrix(1,0,0,1,271.5,135)" opacity="0.3" style="display: block;"><g opacity="1" transform="matrix(1,0,0,1,0,0)"><path stroke-linecap="butt" stroke-linejoin="miter" fill-opacity="0" stroke-miterlimit="4" stroke="rgb(0,127,0)" stroke-opacity="1" stroke-width="3" d=" M157.5,51.75 C157.5,51.75 164.75,52.375 164.75,52.375 C168.75128173828125,52.71993637084961 174.4645538330078,52.88797378540039 177.5,52.75 C177.5,52.75 177.5,52.75 177.5,52.75 C180.5354461669922,52.61202621459961 185.24049377441406,52.16392517089844 188,51.75 C188,51.75 188,51.75 188,51.75 C190.75950622558594,51.33607482910156 195.01644897460938,50.439876556396484 197.5,49.75 C197.5,49.75 197.5,49.75 197.5,49.75 C199.98355102539062,49.060123443603516 201.88796997070312,47.15570068359375 201.75,45.5 C201.75,45.5 201.75,45.5 201.75,45.5 C201.61203002929688,43.84429931640625 201.38796997070312,40.81962585449219 201.25,38.75 C201.25,38.75 201.25,38.75 201.25,38.75 C201.11203002929688,36.68037414550781 201.67214965820312,33.76772689819336 202.5,32.25 C202.5,32.25 202.5,32.25 202.5,32.25 C203.32785034179688,30.732275009155273 204.33607482910156,28.04367446899414 204.75,26.25 C204.75,26.25 204.75,26.25 204.75,26.25 C205.16392517089844,24.45632553100586 205.5,20.983549118041992 205.5,18.5 C205.5,18.5 205.5,18.5 205.5,18.5 C205.5,16.016450881958008 205.2759552001953,11.983550071716309 205,9.5 C205,9.5 205,9.5 205,9.5 C204.7240447998047,7.016449928283691 203.37974548339844,3.319624900817871 202,1.25 C202,1.25 202,1.25 202,1.25 C200.62025451660156,-0.8196250200271606 196.5873565673828,-4.180375099182129 193,-6.25 C193,-6.25 193,-6.25 193,-6.25 C189.4126434326172,-8.319624900817871 183.13925170898438,-11.008225440979004 179,-12.25 C179,-12.25 179,-12.25 179,-12.25 C174.86074829101562,-13.491774559020996 167.69114685058594,-15.508225440979004 163,-16.75 C163,-16.75 163,-16.75 163,-16.75 C158.30885314941406,-17.991775512695312 148.00254821777344,-19.672149658203125 140,-20.5 C140,-20.5 140,-20.5 140,-20.5 C131.99745178222656,-21.327850341796875 118.77850341796875,-22.89620018005371 110.5,-24 C110.5,-24 110.5,-24 110.5,-24 C102.22149658203125,-25.10379981994629 73.09503936767578,-26.042036056518555 45.50008773803711,-26.093809127807617 C45.50008773803711,-26.093809127807617 12.24991226196289,-26.156190872192383 12.24991226196289,-26.156190872192383 C-15.345039367675781,-26.207963943481445 -37.13386154174805,-26.25 -36.375,-26.25 C-36.375,-26.25 -36.375,-26.25 -36.375,-26.25 C-35.61613845825195,-26.25 -40.48922348022461,-26.306013107299805 -47.25,-26.375 C-47.25,-26.375 -47.25,-26.375 -47.25,-26.375 C-54.01077651977539,-26.443986892700195 -63.3088493347168,-26.724050521850586 -68,-27 C-68,-27 -68,-27 -68,-27 C-72.69114685058594,-27.275949478149414 -78.62847137451172,-28.06012535095215 -81.25,-28.75 C-81.25,-28.75 -81.25,-28.75 -81.25,-28.75 C-83.87152862548828,-29.43987464904785 -87.34429931640625,-30.44809913635254 -89,-31 C-89,-31 -89,-31 -89,-31 C-90.65570068359375,-31.55190086364746 -93.34429931640625,-32.44810104370117 -95,-33 C-95,-33 -95,-33 -95,-33 C-96.65570068359375,-33.55189895629883 -99.68037414550781,-34.560123443603516 -101.75,-35.25 C-101.75,-35.25 -101.75,-35.25 -101.75,-35.25 C-103.81962585449219,-35.939876556396484 -106.7322769165039,-37.284175872802734 -108.25,-38.25 C-108.25,-38.25 -108.25,-38.25 -108.25,-38.25 C-109.7677230834961,-39.215824127197266 -112.34429931640625,-40.784175872802734 -114,-41.75 C-114,-41.75 -117,-43.5 -117,-43.5"></path></g><g opacity="1" transform="matrix(-0.4226182699203491,-0.9063078165054321,0.9063078165054321,-0.4226182699203491,126.25,37.875)"><path stroke-linecap="butt" stroke-linejoin="miter" fill-opacity="0" stroke-miterlimit="4" stroke="rgb(0,127,0)" stroke-opacity="1" stroke-width="3" d=" M0,-33.875 C18.76460075378418,-33.875 34,-18.69561195373535 34,0 C34,18.69561195373535 18.76460075378418,33.875 0,33.875 C-18.76460075378418,33.875 -34,18.69561195373535 -34,0 C-34,-18.69561195373535 -18.76460075378418,-33.875 0,-33.875z"></path></g><g opacity="1" transform="matrix(1.0300999879837036,0,0,1.007539987564087,0,0)"><path stroke-linecap="butt" stroke-linejoin="miter" fill-opacity="0" stroke-miterlimit="4" stroke="rgb(0,127,0)" stroke-opacity="1" stroke-width="3" d=" M-91.5,49.5 C-91.5,49.5 94.5,49.5 94.5,49.5"></path></g><g opacity="1" transform="matrix(-0.258819043636322,-0.9659258127212524,0.9659258127212524,-0.258819043636322,-126.375,37.75)"><path stroke-linecap="butt" stroke-linejoin="miter" fill-opacity="0" stroke-miterlimit="4" stroke="rgb(0,127,0)" stroke-opacity="1" stroke-width="3" d=" M0,-33.5 C18.0057373046875,-33.5 32.625,-18.488649368286133 32.625,0 C32.625,18.488649368286133 18.0057373046875,33.5 0,33.5 C-18.0057373046875,33.5 -32.625,18.488649368286133 -32.625,0 C-32.625,-18.488649368286133 -18.0057373046875,-33.5 0,-33.5z"></path></g><g opacity="1" transform="matrix(1,0,0,1,0,0)"><path stroke-linecap="butt" stroke-linejoin="miter" fill-opacity="0" stroke-miterlimit="4" stroke="rgb(0,127,0)" stroke-opacity="1" stroke-width="3" d=" M84.5,-26.5 C84.5,-26.5 82,-29.25 82,-29.25 C80.62024688720703,-30.767724990844727 76.8114013671875,-33.79240036010742 73.5,-36 C73.5,-36 73.5,-36 73.5,-36 C70.1885986328125,-38.20759963989258 64.0272216796875,-41.56835174560547 59.75,-43.5 C59.75,-43.5 59.75,-43.5 59.75,-43.5 C55.472774505615234,-45.43164825439453 48.30317687988281,-48.79240036010742 43.75,-51 C43.75,-51 43.75,-51 43.75,-51 C39.19682312011719,-53.20759963989258 31.467100143432617,-56.56835174560547 26.5,-58.5 C26.5,-58.5 26.5,-58.5 26.5,-58.5 C21.532899856567383,-60.43164825439453 13.57912540435791,-63.23227310180664 8.75,-64.75 C8.75,-64.75 8.75,-64.75 8.75,-64.75 C3.920875072479248,-66.2677230834961 -2.9126501083374023,-67.9480972290039 -6.5,-68.5 C-6.5,-68.5 -6.5,-68.5 -6.5,-68.5 C-10.087349891662598,-69.0519027709961 -17.032899856567383,-69.61202239990234 -22,-69.75 C-22,-69.75 -22,-69.75 -22,-69.75 C-26.967100143432617,-69.88797760009766 -37.609474182128906,-70.22405242919922 -45.75,-70.5 C-45.75,-70.5 -45.75,-70.5 -45.75,-70.5 C-53.890525817871094,-70.77594757080078 -65.31707763671875,-70.5519027709961 -71.25,-70 C-71.25,-70 -71.25,-70 -71.25,-70 C-77.18292236328125,-69.4480972290039 -86.25695037841797,-67.99177551269531 -91.5,-66.75 C-91.5,-66.75 -91.5,-66.75 -91.5,-66.75 C-96.74304962158203,-65.50822448730469 -105.48100280761719,-62.93164825439453 -111,-61 C-111,-61 -111,-61 -111,-61 C-116.51899719238281,-59.06835174560547 -124.4727783203125,-55.81962585449219 -128.75,-53.75 C-128.75,-53.75 -128.75,-53.75 -128.75,-53.75 C-133.0272216796875,-51.68037414550781 -139.30062866210938,-48.43164825439453 -142.75,-46.5 C-142.75,-46.5 -142.75,-46.5 -142.75,-46.5 C-146.19937133789062,-44.56835174560547 -151.12847900390625,-41.99177551269531 -153.75,-40.75 C-153.75,-40.75 -153.75,-40.75 -153.75,-40.75 C-156.37152099609375,-39.50822448730469 -167.5740203857422,-38.16392517089844 -178.75,-37.75 C-178.75,-37.75 -178.75,-37.75 -178.75,-37.75 C-189.9259796142578,-37.33607482910156 -199.33607482910156,-30.390525817871094 -199.75,-22.25 C-199.75,-22.25 -199.75,-22.25 -199.75,-22.25 C-200.16392517089844,-14.109475135803223 -200.38796997070312,-5.707600116729736 -200.25,-3.5 C-200.25,-3.5 -200.25,-3.5 -200.25,-3.5 C-200.11203002929688,-1.2924000024795532 -201.23226928710938,1.2841750383377075 -202.75,2.25 C-202.75,2.25 -202.75,2.25 -202.75,2.25 C-204.26773071289062,3.215825080871582 -206.06011962890625,5.232275009155273 -206.75,6.75 C-206.75,6.75 -206.75,6.75 -206.75,6.75 C-207.43988037109375,8.267724990844727 -207.66392517089844,12.412650108337402 -207.25,16 C-207.25,16 -207.25,16 -207.25,16 C-206.83607482910156,19.587350845336914 -205.04367065429688,23.620250701904297 -203.25,25 C-203.25,25 -203.25,25 -203.25,25 C-201.45632934570312,26.379749298095703 -198.0955810546875,29.068349838256836 -195.75,31 C-195.75,31 -195.75,31 -195.75,31 C-193.4044189453125,32.93164825439453 -189.0354461669922,35.50822448730469 -186,36.75 C-186,36.75 -186,36.75 -186,36.75 C-182.9645538330078,37.99177551269531 -178.14747619628906,39.672149658203125 -175.25,40.5 C-175.25,40.5 -175.25,40.5 -175.25,40.5 C-172.35252380371094,41.327850341796875 -167.98355102539062,42.560123443603516 -165.5,43.25 C-165.5,43.25 -161,44.5 -161,44.5"></path></g></g></g></svg>